<svg width="37" height="36" viewBox="0 0 37 36" fill="none" xmlns="http://www.w3.org/2000/svg">
<path fill-rule="evenodd" clip-rule="evenodd" d="M0.555664 2C0.555664 0.895431 1.45109 0 2.55566 0H34.5557C35.6602 0 36.5557 0.895431 36.5557 2V34C36.5557 35.1046 35.6602 36 34.5557 36H2.55567C1.4511 36 0.555664 35.1046 0.555664 34V2ZM5.55566 11C5.55566 7.68629 8.24196 5 11.5557 5H25.5557C28.8694 5 31.5557 7.68629 31.5557 11V25C31.5557 28.3137 28.8694 31 25.5557 31H11.5557C8.24196 31 5.55566 28.3137 5.55566 25V11ZM12.0557 7.5C9.84653 7.5 8.05566 9.29086 8.05566 11.5V24.5C8.05566 26.7091 9.84653 28.5 12.0557 28.5H25.0557C27.2648 28.5 29.0557 26.7091 29.0557 24.5V11.5C29.0557 9.29086 27.2648 7.5 25.0557 7.5H12.0557ZM18.5557 24.5C22.1455 24.5 25.0557 21.5899 25.0557 18C25.0557 14.4101 22.1455 11.5 18.5557 11.5C14.9658 11.5 12.0557 14.4101 12.0557 18C12.0557 21.5899 14.9658 24.5 18.5557 24.5ZM18.5557 21.5C20.4887 21.5 22.0557 19.933 22.0557 18C22.0557 16.067 20.4887 14.5 18.5557 14.5C16.6227 14.5 15.0557 16.067 15.0557 18C15.0557 19.933 16.6227 21.5 18.5557 21.5ZM25.5557 12.5C26.3841 12.5 27.0557 11.8284 27.0557 11C27.0557 10.1716 26.3841 9.5 25.5557 9.5C24.7272 9.5 24.0557 10.1716 24.0557 11C24.0557 11.8284 24.7272 12.5 25.5557 12.5Z" fill="#3D503E"/>
</svg>
