<svg width="37" height="36" viewBox="0 0 37 36" fill="none" xmlns="http://www.w3.org/2000/svg">
<path fill-rule="evenodd" clip-rule="evenodd" d="M0.555664 2C0.555664 0.895431 1.45109 0 2.55566 0H34.5557C35.6602 0 36.5557 0.895431 36.5557 2V34C36.5557 35.1046 35.6602 36 34.5557 36H2.55567C1.4511 36 0.555664 35.1046 0.555664 34V2ZM7.30566 29.5V13.5H12.3057V29.5H7.30566ZM20.0557 13.5H15.0557V29.5H20.0557V19.7517C21.8057 16.75 25.3057 18.0011 25.8057 19.7517V29.5017H30.5557V18.0011C28.5557 11.5009 21.3057 13.25 20.0557 16.0011V13.5ZM9.80566 11.5C11.3244 11.5 12.5557 10.2688 12.5557 8.75C12.5557 7.23122 11.3244 6 9.80566 6C8.28688 6 7.05566 7.23122 7.05566 8.75C7.05566 10.2688 8.28688 11.5 9.80566 11.5Z" fill="#3D503E"/>
</svg>
