<svg width="37" height="36" viewBox="0 0 37 36" fill="none" xmlns="http://www.w3.org/2000/svg">
<path fill-rule="evenodd" clip-rule="evenodd" d="M2.95385 0.203125C1.86156 0.203125 0.976074 1.08861 0.976074 2.18091V33.8253C0.976074 34.9176 1.86156 35.8031 2.95385 35.8031H34.5983C35.6906 35.8031 36.5761 34.9176 36.5761 33.8253V2.1809C36.5761 1.08861 35.6906 0.203125 34.5983 0.203125H2.95385ZM7.26745 8.25807C9.10883 10.536 12.8376 13.5976 18.5459 13.9624C17.6252 8.71496 23.6097 4.61027 27.983 8.9467C28.5968 8.94678 30.0545 8.48875 31.4356 7.57902C31.3588 8.18698 30.7911 9.6309 29.1338 10.5429C29.1605 10.5427 29.1879 10.5428 29.2163 10.5428C29.678 10.5433 30.3913 10.5442 32.1261 9.85667C31.589 10.6166 30.2847 12.1365 29.5942 12.5947C30.0545 22.1654 19.6968 34.0207 5.42607 26.4998C7.03728 26.8037 11.1343 26.5453 13.7123 23.9919C10.9502 23.9919 8.87866 22.624 8.18814 20.3441C9.10883 20.5721 10.0295 20.5721 11.1804 20.1161C9.79935 19.9641 6.80711 19.2042 6.34676 14.8724C7.03728 15.3284 7.7278 15.5541 9.10883 15.3284C7.49763 14.4137 5.42607 11.9039 7.26745 8.25807Z" fill="#3D503E"/>
</svg>
