<svg width="40" height="40" viewBox="0 0 40 40" fill="none" xmlns="http://www.w3.org/2000/svg">
<path fill-rule="evenodd" clip-rule="evenodd" d="M2 4C2 2.89543 2.89543 2 4 2H36C37.1046 2 38 2.89543 38 4V36C38 37.1046 37.1046 38 36 38H4C2.89543 38 2 37.1046 2 36V4ZM15.0319 12H10.7203C10.5296 12 10.4091 12.205 10.5019 12.3717L13.0482 16.9419C13.09 17.017 13.0904 17.1082 13.0492 17.1836L8.70238 25.13C8.61125 25.2966 8.73181 25.5 8.92171 25.5H13.4839C13.5732 25.5 13.6557 25.4524 13.7004 25.375L18.4228 17.1961C18.4701 17.1142 18.4672 17.0126 18.4151 16.9336L15.2408 12.1125C15.1945 12.0423 15.116 12 15.0319 12ZM26.8068 7.5H31.0793C31.2689 7.5 31.3895 7.70294 31.2988 7.86953L23.1634 22.8142C23.1207 22.8928 23.1231 22.9882 23.1699 23.0644L28.7195 32.1194C28.8216 32.2859 28.7018 32.5 28.5064 32.5H23.747C23.6583 32.5 23.5762 32.453 23.5313 32.3764L18.0725 23.0649C18.0276 22.9883 18.0267 22.8936 18.0701 22.8161L26.5888 7.62771C26.633 7.54883 26.7164 7.5 26.8068 7.5Z" fill="#3D503E"/>
</svg>
