<svg width="286" height="74" viewBox="0 0 286 74" fill="none" xmlns="http://www.w3.org/2000/svg">
<path d="M14.6291 17.1852C6.58307 17.1852 0 23.7204 0 31.7079V45.2625C0 53.25 6.58307 59.7852 14.6291 59.7852H17.5549C25.6008 59.7852 32.1839 53.25 32.1839 45.2625V31.7079C32.1839 23.7204 25.6008 17.1852 17.5549 17.1852H14.6291ZM14.6291 22.9943H17.5549C22.4312 22.9943 26.3323 26.867 26.3323 31.7079V45.2625C26.3323 50.1034 22.4312 53.9761 17.5549 53.9761H14.6291C9.7527 53.9761 5.85162 50.1034 5.85162 45.2625V31.7079C5.85162 26.867 9.7527 22.9943 14.6291 22.9943Z" fill="#E6730A"/>
<path d="M66.0542 17.1852H64.5913C60.609 17.1852 57.033 18.7989 54.351 21.3807V17.9114H48.4994V59.0591H54.351V31.7079C54.351 26.9477 58.2521 22.9943 63.1284 22.9943H66.0542C70.9306 22.9943 74.8317 26.9477 74.8317 31.7079V59.0591H80.6833V31.7079C80.6833 23.7204 74.1002 17.1852 66.0542 17.1852Z" fill="#E6730A"/>
<path d="M111.384 5.55696H117.236V0H111.384V5.55696ZM99.6808 17.9114V23.7204H111.384V53.25H96.9988V59.0591H130.646V53.25H117.236V17.9114H99.6808Z" fill="#E6730A"/>
<path d="M141.678 23.7204H152.894V45.3432C152.894 53.25 159.477 59.7852 167.442 59.7852C174.269 59.7852 179.876 55.1057 181.502 48.9738L175.894 47.2795C175 51.0716 171.587 53.9761 167.442 53.9761C162.647 53.9761 158.746 50.1034 158.746 45.3432V23.7204H178.251V17.9114H158.746V6.77727H152.894V17.9114H141.678V23.7204Z" fill="#E6730A"/>
<path d="M191.641 17.9114L207.326 53.8148L202.287 65.5136C201.8 66.5625 201.149 67.2886 199.524 67.2886H192.941V73.0977H199.524C203.588 73.0977 206.27 70.9193 207.651 67.7727L229.351 17.9114H222.931L210.415 46.6341L198.061 17.9114H191.641Z" fill="#E6730A"/>
<path d="M242.009 69.467H285.429V63.6579H242.009V69.467Z" fill="#E6730A"/>
</svg>
