<svg width="20" height="20" viewBox="0 0 20 20" fill="none" xmlns="http://www.w3.org/2000/svg">
<rect width="20" height="20" rx="10" fill="#E6730A"/>
<path d="M8.64489 12.5071V12.3778C8.6482 11.7779 8.70455 11.3007 8.81392 10.946C8.92661 10.5914 9.0857 10.3063 9.29119 10.0909C9.49669 9.87216 9.74692 9.67164 10.0419 9.48935C10.2441 9.3634 10.4247 9.22585 10.5838 9.0767C10.7462 8.92424 10.8738 8.75521 10.9666 8.5696C11.0594 8.38068 11.1058 8.17022 11.1058 7.93821C11.1058 7.67637 11.0445 7.44934 10.9219 7.2571C10.7992 7.06487 10.6335 6.91572 10.4247 6.80966C10.2192 6.7036 9.98887 6.65057 9.73366 6.65057C9.49834 6.65057 9.27462 6.70194 9.0625 6.80469C8.85369 6.90412 8.67969 7.05658 8.54048 7.26207C8.40459 7.46425 8.32836 7.72112 8.31179 8.03267H6.5419C6.55848 7.40294 6.71094 6.87595 6.99929 6.4517C7.29096 6.02746 7.67543 5.70928 8.1527 5.49716C8.63329 5.28504 9.16359 5.17898 9.74361 5.17898C10.3767 5.17898 10.9335 5.29001 11.4141 5.51207C11.898 5.73414 12.2741 6.05066 12.5426 6.46165C12.8144 6.86932 12.9503 7.35322 12.9503 7.91335C12.9503 8.29119 12.889 8.62926 12.7663 8.92756C12.647 9.22585 12.4763 9.491 12.2543 9.72301C12.0322 9.95502 11.7687 10.1622 11.4638 10.3445C11.1953 10.5102 10.9749 10.6825 10.8026 10.8615C10.6335 11.0405 10.5076 11.2509 10.4247 11.4929C10.3452 11.7315 10.3037 12.0265 10.3004 12.3778V12.5071H8.64489ZM9.50994 15.6094C9.21165 15.6094 8.95478 15.5033 8.73935 15.2912C8.52391 15.0791 8.41619 14.8205 8.41619 14.5156C8.41619 14.2173 8.52391 13.9621 8.73935 13.75C8.95478 13.5379 9.21165 13.4318 9.50994 13.4318C9.80492 13.4318 10.0601 13.5379 10.2756 13.75C10.4943 13.9621 10.6037 14.2173 10.6037 14.5156C10.6037 14.7178 10.5523 14.9018 10.4496 15.0675C10.3501 15.2332 10.2176 15.3658 10.0518 15.4652C9.88944 15.5613 9.70881 15.6094 9.50994 15.6094Z" fill="white"/>
</svg>
