<svg width="164" height="42" viewBox="0 0 164 42" fill="none" xmlns="http://www.w3.org/2000/svg">
  <path d="M8.40547 9.87417C3.78246 9.87417 0 13.6291 0 18.2185V26.0066C0 30.596 3.78246 34.351 8.40547 34.351H10.0866C14.7096 34.351 18.492 30.596 18.492 26.0066V18.2185C18.492 13.6291 14.7096 9.87417 10.0866 9.87417H8.40547ZM8.40547 13.2119H10.0866C12.8884 13.2119 15.1298 15.4371 15.1298 18.2185V26.0066C15.1298 28.7881 12.8884 31.0132 10.0866 31.0132H8.40547C5.60364 31.0132 3.36219 28.7881 3.36219 26.0066V18.2185C3.36219 15.4371 5.60364 13.2119 8.40547 13.2119Z" fill="#E6730A"/>
  <path d="M37.953 9.87417H37.1125C34.8243 9.87417 32.7696 10.8013 31.2286 12.2848V10.2914H27.8665V33.9338H31.2286V18.2185C31.2286 15.4834 33.4701 13.2119 36.2719 13.2119H37.953C40.7548 13.2119 42.9963 15.4834 42.9963 18.2185V33.9338H46.3585V18.2185C46.3585 13.6291 42.576 9.87417 37.953 9.87417Z" fill="#E6730A"/>
  <path d="M63.9983 3.19288H67.3605V0H63.9983V3.19288ZM57.2739 10.2914V13.6291H63.9983V30.596H55.7329V33.9338H75.0655V30.596H67.3605V10.2914H57.2739Z" fill="#E6730A"/>
  <path d="M81.4046 13.6291H87.8488V26.053C87.8488 30.596 91.6313 34.351 96.2076 34.351C100.13 34.351 103.352 31.6623 104.286 28.1391L101.064 27.1656C100.55 29.3444 98.5891 31.0132 96.2076 31.0132C93.4524 31.0132 91.211 28.7881 91.211 26.053V13.6291H102.418V10.2914H91.211V3.89404H87.8488V10.2914H81.4046V13.6291Z" fill="#E6730A"/>
  <path d="M110.112 10.2914L119.124 30.9205L116.229 37.6424C115.949 38.245 115.575 38.6623 114.641 38.6623H110.859V42H114.641C116.976 42 118.517 40.7483 119.311 38.9404L131.779 10.2914H128.09L120.899 26.7947L113.801 10.2914H110.112Z" fill="#E6730A"/>
  <path d="M139.052 39.9139H164V36.5762H139.052V39.9139Z" fill="#E6730A"/>
</svg>
