<svg width="18" height="18" viewBox="0 0 18 18" fill="none" xmlns="http://www.w3.org/2000/svg">
<g clip-path="url(#clip0_974_1339)">
<path d="M16.6835 13.1035V15.3612C16.6843 15.5708 16.6413 15.7783 16.5572 15.9703C16.4731 16.1624 16.3497 16.3348 16.1949 16.4765C16.0402 16.6181 15.8575 16.726 15.6586 16.7932C15.4597 16.8603 15.2489 16.8853 15.0397 16.8664C12.7195 16.6148 10.4907 15.8234 8.53256 14.556C6.71072 13.4005 5.16612 11.8589 4.00845 10.0405C2.73415 8.07721 1.94112 5.8419 1.69362 3.51569C1.67478 3.30758 1.69956 3.09783 1.76638 2.8998C1.83321 2.70177 1.94061 2.5198 2.08176 2.36547C2.22291 2.21114 2.39471 2.08783 2.58622 2.0034C2.77773 1.91897 2.98475 1.87527 3.19411 1.87507H5.45617C5.8221 1.87148 6.17685 2.00081 6.45431 2.23897C6.73176 2.47712 6.91299 2.80785 6.9642 3.1695C7.05968 3.89203 7.23674 4.60145 7.49201 5.28424C7.59346 5.55361 7.61542 5.84635 7.55528 6.12779C7.49514 6.40923 7.35543 6.66756 7.1527 6.87218L6.1951 7.82795C7.26849 9.71206 8.83149 11.2721 10.7192 12.3434L11.6768 11.3876C11.8818 11.1853 12.1406 11.0459 12.4226 10.9858C12.7046 10.9258 12.9979 10.9477 13.2678 11.049C13.9519 11.3038 14.6627 11.4805 15.3866 11.5758C15.7528 11.6274 16.0874 11.8115 16.3265 12.0932C16.5656 12.3748 16.6927 12.7344 16.6835 13.1035Z" stroke="#E6730A" stroke-width="2" stroke-linecap="round" stroke-linejoin="round"/>
</g>
<defs>
<clipPath id="clip0_974_1339">
<rect width="18" height="18" fill="white"/>
</clipPath>
</defs>
</svg>
